<?xml version="1.0" standalone="no"?>
<!DOCTYPE svg PUBLIC "-//W3C//DTD SVG 20010904//EN"
 "http://www.w3.org/TR/2001/REC-SVG-20010904/DTD/svg10.dtd">
<svg version="1.0" xmlns="http://www.w3.org/2000/svg"
 width="268.000000pt" height="284.000000pt" viewBox="0 0 268.000000 284.000000"
 preserveAspectRatio="xMidYMid meet">
<metadata>
Created by potrace 1.16, written by Peter Selinger 2001-2019
</metadata>
<g transform="translate(0.000000,284.000000) scale(0.100000,-0.100000)"
fill="#211551" stroke="none">
<path d="M1700 2621 l30 -83 -27 7 c-131 33 -178 39 -333 39 -124 1 -186 -4
-248 -17 -375 -82 -692 -327 -861 -665 -89 -178 -138 -414 -127 -610 13 -240
82 -446 214 -647 62 -93 239 -269 332 -330 154 -100 336 -170 510 -196 131
-19 363 -7 482 25 135 36 260 92 376 169 286 191 480 490 538 832 24 144 15
373 -21 510 -55 210 -161 399 -313 556 -85 89 -157 147 -169 135 -3 -3 23 -36
59 -73 314 -326 341 -873 65 -1310 -51 -81 -148 -190 -223 -254 -103 -85 -126
-100 -220 -147 -222 -111 -459 -136 -668 -72 -85 27 -158 59 -154 70 2 4 55
62 118 127 124 128 266 286 404 453 113 135 376 554 376 598 0 21 -56 76 -96
94 -21 10 -41 1 -169 -77 -80 -48 -145 -89 -145 -90 0 -1 46 6 102 16 56 10
103 17 105 15 9 -9 -108 -189 -223 -343 -192 -255 -363 -445 -558 -618 l-78
-70 -57 60 c-165 176 -249 425 -238 705 9 224 71 415 201 609 262 393 730 581
1120 450 32 -11 61 -18 64 -15 8 8 -21 44 -113 141 l-85 90 30 -84z"/>
</g>
</svg>
