<?xml version="1.0" standalone="no"?>
<!DOCTYPE svg PUBLIC "-//W3C//DTD SVG 20010904//EN"
 "http://www.w3.org/TR/2001/REC-SVG-20010904/DTD/svg10.dtd">
<svg version="1.0" xmlns="http://www.w3.org/2000/svg"
 width="564.000000pt" height="134.000000pt" viewBox="0 0 564.000000 134.000000"
 preserveAspectRatio="xMidYMid meet">

<g transform="translate(0.000000,134.000000) scale(0.100000,-0.100000)"
fill="#211551" stroke="none">
<path d="M844 1258 c3 -10 9 -26 13 -35 5 -13 3 -15 -13 -8 -34 15 -254 14
-314 -1 -107 -28 -194 -78 -273 -156 -128 -127 -176 -238 -177 -409 0 -119 15
-184 62 -269 170 -308 544 -414 855 -243 26 15 80 59 120 99 188 191 225 461
95 694 -37 67 -119 158 -162 179 -23 11 -22 10 5 -16 43 -40 91 -116 112 -177
26 -75 24 -240 -5 -323 -47 -134 -151 -256 -271 -317 -55 -29 -121 -46 -202
-53 -63 -5 -87 -2 -142 16 -37 13 -67 25 -67 27 0 3 57 68 128 146 70 77 147
166 170 198 68 91 140 213 135 227 -3 6 -16 19 -29 28 -24 15 -27 14 -92 -25
l-67 -41 49 7 c40 5 47 4 40 -7 -87 -142 -273 -361 -375 -443 l-46 -36 -38 41
c-21 23 -51 72 -69 108 -29 62 -30 73 -31 186 0 100 4 131 23 185 61 170 189
293 363 349 49 16 184 17 238 2 23 -7 45 -11 47 -9 2 3 -17 24 -43 49 -25 24
-43 36 -39 27z"/>
<path d="M2532 855 c-89 -39 -132 -139 -109 -254 17 -88 99 -151 194 -151 69
0 130 33 171 94 27 41 32 57 32 110 -1 99 -42 167 -122 201 -46 19 -122 19
-166 0z m166 -38 c13 -12 30 -37 38 -56 19 -46 18 -164 -2 -207 -56 -117 -194
-110 -237 11 -29 82 -11 202 37 250 41 41 121 42 164 2z"/>
<path d="M2870 860 c-12 -8 -11 -10 6 -10 12 0 26 -6 32 -12 13 -17 16 -322 2
-347 -5 -11 -20 -22 -32 -24 -13 -2 18 -5 67 -5 69 0 85 2 68 10 -26 13 -33
35 -33 111 0 40 4 57 13 57 14 0 121 -101 144 -137 14 -21 13 -24 -8 -32 -18
-7 -2 -10 64 -10 l89 -1 -56 48 c-30 26 -83 78 -118 116 l-62 69 73 68 c40 37
88 75 107 84 19 9 34 18 34 20 0 3 -36 5 -80 5 -47 0 -80 -4 -80 -10 0 -5 9
-10 20 -10 39 0 21 -38 -51 -104 -39 -36 -75 -66 -80 -66 -12 0 -11 112 1 144
5 14 16 26 25 26 8 0 15 5 15 10 0 13 -140 13 -160 0z"/>
<path d="M3480 768 c-69 -166 -126 -285 -143 -294 -11 -6 -2 -9 29 -10 41 -1
43 1 38 22 -3 13 2 44 11 69 l18 45 79 0 79 0 20 -45 c11 -25 19 -55 17 -67
-3 -22 -1 -23 83 -19 l20 1 -20 29 c-12 16 -21 32 -21 36 0 3 -22 54 -50 111
-27 58 -61 132 -76 164 -15 33 -30 60 -34 60 -4 0 -27 -46 -50 -102z m94 -126
c7 -21 4 -22 -58 -22 -36 0 -66 4 -66 9 0 5 11 33 23 62 13 30 27 63 31 74 7
17 13 10 36 -41 15 -33 31 -70 34 -82z"/>
<path d="M3794 852 l28 -17 1 -167 c1 -124 -2 -170 -12 -182 -12 -14 -7 -16
55 -15 50 0 63 3 47 9 -25 10 -36 53 -31 115 l3 40 61 7 c95 10 130 29 145 77
10 33 9 47 -2 78 -21 55 -72 72 -214 72 -109 1 -110 1 -81 -17z m200 -22 c47
-17 55 -117 12 -145 -11 -7 -43 -15 -71 -17 l-50 -3 -3 65 c-5 98 1 110 48
110 21 0 50 -4 64 -10z"/>
<path d="M4148 855 l32 -14 -2 -178 -3 -177 -25 -7 c-14 -4 12 -7 60 -7 47 1
75 3 64 5 -29 5 -34 36 -34 188 0 156 5 179 38 192 22 9 9 11 -68 12 -91 0
-93 0 -62 -14z"/>
<path d="M4330 820 c0 -27 5 -50 10 -50 6 0 10 6 10 14 0 29 35 55 83 62 l47
6 0 -173 c0 -96 -4 -179 -8 -185 -4 -7 -16 -14 -27 -17 -11 -2 18 -5 65 -5 47
0 76 3 65 5 -11 3 -23 10 -27 17 -4 6 -8 89 -8 184 l0 174 43 -7 c68 -11 75
-14 82 -45 10 -47 25 -35 25 20 l0 50 -180 0 -180 0 0 -50z"/>
<path d="M4853 823 c-12 -27 -36 -82 -53 -123 -63 -146 -101 -219 -118 -223
-9 -3 10 -5 43 -6 45 0 56 2 43 10 -22 12 -22 22 -2 76 l17 43 81 0 82 0 21
-49 c21 -50 20 -64 -7 -74 -8 -3 18 -6 58 -6 70 -1 73 0 56 16 -10 10 -31 47
-47 83 -16 36 -46 101 -67 145 -21 44 -46 97 -55 118 -10 20 -20 37 -24 37 -4
0 -17 -21 -28 -47z m50 -121 c15 -35 27 -68 27 -73 0 -5 -29 -9 -65 -9 -36 0
-65 4 -65 9 0 5 7 25 15 45 53 128 47 126 88 28z"/>
<path d="M5143 854 c30 -16 28 -3 32 -220 3 -125 -3 -147 -40 -157 -11 -2 57
-5 152 -6 l172 -1 14 48 c8 26 13 49 11 51 -1 2 -20 -15 -42 -38 -39 -41 -39
-41 -113 -41 -45 0 -80 5 -87 12 -8 8 -12 54 -11 148 2 164 7 191 39 207 22
11 14 13 -65 12 -85 0 -89 -1 -62 -15z"/>
<path d="M1570 853 c48 -18 51 -28 49 -200 0 -130 -4 -166 -16 -178 -13 -13 4
-15 145 -15 l159 0 10 45 c12 54 3 65 -21 25 -25 -43 -52 -54 -131 -52 -88 3
-96 11 -91 106 l3 71 74 -1 c40 -1 75 -6 77 -12 1 -5 9 -18 17 -28 13 -17 14
-11 15 56 l0 75 -20 -32 c-19 -32 -22 -33 -89 -33 -78 0 -81 3 -81 80 0 71 17
84 101 76 83 -7 97 -12 105 -38 9 -29 26 -7 22 28 l-3 29 -170 2 c-93 1 -163
-1 -155 -4z"/>
<path d="M1973 844 l27 -15 -2 -176 -3 -177 -25 -7 c-14 -4 14 -7 65 -7 51 0
79 3 65 7 -24 6 -25 11 -28 89 -2 58 1 82 9 82 17 0 149 -137 149 -154 0 -8
-10 -17 -22 -19 -13 -2 20 -5 72 -5 52 0 87 2 78 6 -17 7 -87 73 -176 165
l-52 54 71 68 c40 37 90 76 113 86 l41 19 -90 -1 c-52 -1 -80 -4 -65 -8 14 -4
26 -14 28 -22 2 -13 -60 -78 -136 -143 l-22 -19 0 81 c0 78 1 82 28 96 26 14
22 15 -63 15 -86 0 -89 -1 -62 -15z"/>
</g>
</svg>
