<?xml version="1.0" standalone="no"?>
<!DOCTYPE svg PUBLIC "-//W3C//DTD SVG 20010904//EN"
 "http://www.w3.org/TR/2001/REC-SVG-20010904/DTD/svg10.dtd">
<svg version="1.0" xmlns="http://www.w3.org/2000/svg"
 width="289.000000pt" height="147.000000pt" viewBox="0 0 289.000000 147.000000"
 preserveAspectRatio="xMidYMid meet">

<g transform="translate(0.000000,147.000000) scale(0.100000,-0.100000)"
fill="#211551" stroke="none">
<path d="M1544 1446 c1 -17 8 -27 25 -31 34 -9 34 -2 2 29 l-29 28 2 -26z"/>
<path d="M1293 1425 c-96 -29 -196 -110 -245 -195 -39 -69 -51 -129 -46 -227
6 -108 36 -177 110 -253 94 -94 181 -130 316 -130 191 0 343 106 402 280 31
91 25 210 -13 294 -31 66 -87 140 -120 158 -15 8 -11 -1 15 -30 44 -49 68
-122 68 -207 0 -153 -83 -284 -220 -349 -56 -26 -76 -31 -145 -30 -52 0 -90 5
-108 15 l-28 15 51 55 c102 106 167 186 214 262 40 64 46 80 36 92 -16 19 -33
19 -70 0 -34 -18 -40 -36 -10 -28 28 7 26 0 -19 -65 -68 -99 -232 -272 -258
-272 -17 0 -62 55 -81 100 -28 64 -35 131 -22 198 35 172 180 305 350 322 61
7 59 7 -35 8 -57 0 -118 -5 -142 -13z"/>
<path d="M1385 243 c-26 -60 -56 -125 -65 -146 l-18 -37 24 0 c15 0 23 4 19
10 -4 6 -1 26 5 45 11 35 12 35 71 35 55 0 59 -2 74 -31 9 -17 14 -37 11 -45
-4 -11 4 -14 36 -14 33 0 38 2 29 14 -6 8 -38 71 -71 141 -32 70 -60 129 -63
131 -2 3 -26 -44 -52 -103z m84 -65 c1 -5 -19 -8 -44 -8 -25 0 -45 4 -45 9 0
5 10 30 22 57 l21 49 23 -50 c13 -27 23 -53 23 -57z"/>
<path d="M2007 344 c-4 -4 -7 -21 -7 -38 l0 -31 18 23 c12 16 30 24 53 25 l34
2 3 -120 c2 -104 0 -121 -15 -132 -14 -11 -9 -13 36 -13 48 0 51 1 37 16 -13
12 -16 40 -16 136 l0 121 37 -6 c22 -4 45 -16 56 -29 l18 -23 -3 35 -3 35
-121 3 c-66 1 -123 -1 -127 -4z"/>
<path d="M2381 329 c-29 -76 -104 -236 -118 -251 -15 -17 -14 -18 15 -18 24 0
30 4 26 15 -4 9 -1 29 6 45 12 29 15 30 74 30 60 0 62 -1 74 -32 8 -23 9 -35
1 -45 -9 -10 -2 -13 36 -13 39 0 45 2 36 14 -6 8 -38 71 -71 141 -32 70 -61
129 -64 132 -3 3 -10 -5 -15 -18z m47 -154 c-3 -4 -27 -5 -52 -3 l-46 3 26 55
26 55 26 -52 c14 -29 23 -55 20 -58z"/>
<path d="M2584 337 c15 -11 17 -29 17 -131 -1 -72 -5 -124 -12 -132 -10 -12 8
-14 104 -14 110 0 115 1 121 22 11 42 6 47 -19 23 -20 -21 -34 -25 -85 -25
l-60 0 -1 38 c-4 168 -2 203 17 217 17 13 13 14 -40 15 -51 0 -57 -2 -42 -13z"/>
<path d="M53 328 c25 -20 34 -234 10 -260 -15 -17 -12 -18 96 -18 111 0 112 0
121 26 14 35 12 53 -3 33 -21 -27 -54 -39 -106 -39 l-51 0 0 66 0 67 47 -6
c29 -3 52 -12 60 -23 11 -16 13 -12 12 32 0 39 -2 45 -9 26 -8 -19 -17 -22
-60 -22 l-50 0 0 54 c0 45 3 56 20 61 27 9 92 -4 113 -23 16 -14 17 -13 17 11
l0 27 -117 0 c-96 0 -114 -2 -100 -12z"/>
<path d="M328 330 c21 -9 22 -14 22 -133 0 -82 -4 -127 -12 -135 -9 -9 -3 -12
28 -12 l40 0 -4 73 -4 72 56 -55 c31 -30 56 -62 56 -72 0 -15 9 -18 50 -18
l50 0 -86 82 -86 83 58 53 c33 30 68 57 79 62 14 6 3 9 -39 9 -54 1 -58 0 -40
-13 18 -14 17 -17 -36 -68 l-55 -53 -3 55 c-3 43 1 57 14 67 15 11 8 13 -47
12 -48 0 -59 -2 -41 -9z"/>
<path d="M708 323 c-36 -22 -68 -83 -68 -127 0 -46 20 -86 60 -120 40 -33 118
-36 166 -7 84 51 84 201 0 252 -39 24 -121 25 -158 2z m138 -17 c24 -20 28
-32 32 -90 5 -79 -9 -121 -49 -141 -41 -22 -65 -18 -100 13 -26 23 -31 36 -36
88 -4 45 -1 70 11 96 29 60 94 76 142 34z"/>
<path d="M978 329 c23 -9 23 -11 20 -139 l-3 -130 33 0 c29 0 32 2 22 19 -13
26 -13 98 1 107 14 8 98 -74 106 -104 4 -18 12 -22 47 -22 l43 0 -81 81 -81
80 50 45 c28 25 64 51 80 59 30 14 30 14 -25 14 -35 1 -50 -2 -41 -8 11 -7 11
-12 -1 -30 -17 -24 -92 -91 -102 -91 -9 0 -7 93 2 106 4 6 14 14 22 17 8 3
-14 5 -50 6 -50 0 -60 -2 -42 -10z"/>
<path d="M1623 333 c15 -4 17 -19 17 -133 0 -93 -3 -130 -12 -133 -7 -3 12 -6
42 -6 42 0 51 2 38 10 -13 7 -18 23 -18 59 0 46 2 50 24 50 37 0 89 20 109 42
26 30 21 63 -14 92 -28 24 -38 26 -117 25 -48 -1 -79 -3 -69 -6z m130 -14 c28
-15 37 -28 37 -58 0 -36 -28 -61 -67 -61 l-33 0 0 58 c0 75 12 87 63 61z"/>
<path d="M1884 324 c13 -12 16 -38 16 -120 0 -58 -5 -114 -10 -125 -10 -18 -7
-19 37 -19 34 0 44 3 33 10 -20 12 -28 233 -10 255 11 13 5 15 -34 15 -43 0
-46 -1 -32 -16z"/>
</g>
</svg>
